{
	"asset":{
		"generator":"Khronos glTF Blender I/O v3.6.27",
		"version":"2.0"
	},
	"scene":0,
	"scenes":[
		{
			"name":"Scene",
			"nodes":[
				1
			]
		}
	],
	"nodes":[
		{
			"mesh":0,
			"name":"craft_speederA",
			"translation":[
				0,
				-0.375,
				0
			]
		},
		{
			"children":[
				0
			],
			"name":"tmpParent",
			"rotation":[
				0,
				-0.7071068286895752,
				0,
				0.7071068286895752
			]
		}
	],
	"materials":[
		{
			"name":"metal",
			"pbrMetallicRoughness":{
				"baseColorFactor":[
					0.843137264251709,
					0.8705882430076599,
					0.9098039269447327,
					1
				]
			}
		},
		{
			"name":"metalRed",
			"pbrMetallicRoughness":{
				"baseColorFactor":[
					1,
					0.6285242438316345,
					0.20283019542694092,
					1
				]
			}
		},
		{
			"name":"dark",
			"pbrMetallicRoughness":{
				"baseColorFactor":[
					0.27450981736183167,
					0.2980392277240753,
					0.34117648005485535,
					1
				]
			}
		},
		{
			"name":"metalDark",
			"pbrMetallicRoughness":{
				"baseColorFactor":[
					0.6750622987747192,
					0.7100219130516052,
					0.7735849022865295,
					1
				]
			}
		}
	],
	"meshes":[
		{
			"name":"Mesh craft_speederA",
			"primitives":[
				{
					"attributes":{
						"POSITION":0,
						"NORMAL":1,
						"TEXCOORD_0":2
					},
					"indices":3,
					"material":0
				},
				{
					"attributes":{
						"POSITION":4,
						"NORMAL":5,
						"TEXCOORD_0":6
					},
					"indices":7,
					"material":1
				},
				{
					"attributes":{
						"POSITION":8,
						"NORMAL":9,
						"TEXCOORD_0":10
					},
					"indices":11,
					"material":2
				},
				{
					"attributes":{
						"POSITION":12,
						"NORMAL":13,
						"TEXCOORD_0":14
					},
					"indices":15,
					"material":3
				}
			]
		}
	],
	"accessors":[
		{
			"bufferView":0,
			"componentType":5126,
			"count":125,
			"max":[
				1,
				0.5,
				1.0499999523162842
			],
			"min":[
				-1,
				8.145570884465769e-10,
				-1.0499999523162842
			],
			"type":"VEC3"
		},
		{
			"bufferView":1,
			"componentType":5126,
			"count":125,
			"type":"VEC3"
		},
		{
			"bufferView":2,
			"componentType":5126,
			"count":125,
			"type":"VEC2"
		},
		{
			"bufferView":3,
			"componentType":5123,
			"count":240,
			"type":"SCALAR"
		},
		{
			"bufferView":4,
			"componentType":5126,
			"count":135,
			"max":[
				1,
				0.699999988079071,
				0.75
			],
			"min":[
				-1,
				0,
				-1.0499999523162842
			],
			"type":"VEC3"
		},
		{
			"bufferView":5,
			"componentType":5126,
			"count":135,
			"type":"VEC3"
		},
		{
			"bufferView":6,
			"componentType":5126,
			"count":135,
			"type":"VEC2"
		},
		{
			"bufferView":7,
			"componentType":5123,
			"count":231,
			"type":"SCALAR"
		},
		{
			"bufferView":8,
			"componentType":5126,
			"count":54,
			"max":[
				0.4000000059604645,
				0.699999988079071,
				1.0499999523162842
			],
			"min":[
				-0.4000000059604645,
				0.10000000149011612,
				-1.0021086931228638
			],
			"type":"VEC3"
		},
		{
			"bufferView":9,
			"componentType":5126,
			"count":54,
			"type":"VEC3"
		},
		{
			"bufferView":10,
			"componentType":5126,
			"count":54,
			"type":"VEC2"
		},
		{
			"bufferView":11,
			"componentType":5123,
			"count":78,
			"type":"SCALAR"
		},
		{
			"bufferView":12,
			"componentType":5126,
			"count":159,
			"max":[
				0.5,
				0.800000011920929,
				1.0499999523162842
			],
			"min":[
				-0.5,
				0,
				-1.0499999523162842
			],
			"type":"VEC3"
		},
		{
			"bufferView":13,
			"componentType":5126,
			"count":159,
			"type":"VEC3"
		},
		{
			"bufferView":14,
			"componentType":5126,
			"count":159,
			"type":"VEC2"
		},
		{
			"bufferView":15,
			"componentType":5123,
			"count":291,
			"type":"SCALAR"
		}
	],
	"bufferViews":[
		{
			"buffer":0,
			"byteLength":1500,
			"byteOffset":0,
			"target":34962
		},
		{
			"buffer":0,
			"byteLength":1500,
			"byteOffset":1500,
			"target":34962
		},
		{
			"buffer":0,
			"byteLength":1000,
			"byteOffset":3000,
			"target":34962
		},
		{
			"buffer":0,
			"byteLength":480,
			"byteOffset":4000,
			"target":34963
		},
		{
			"buffer":0,
			"byteLength":1620,
			"byteOffset":4480,
			"target":34962
		},
		{
			"buffer":0,
			"byteLength":1620,
			"byteOffset":6100,
			"target":34962
		},
		{
			"buffer":0,
			"byteLength":1080,
			"byteOffset":7720,
			"target":34962
		},
		{
			"buffer":0,
			"byteLength":462,
			"byteOffset":8800,
			"target":34963
		},
		{
			"buffer":0,
			"byteLength":648,
			"byteOffset":9264,
			"target":34962
		},
		{
			"buffer":0,
			"byteLength":648,
			"byteOffset":9912,
			"target":34962
		},
		{
			"buffer":0,
			"byteLength":432,
			"byteOffset":10560,
			"target":34962
		},
		{
			"buffer":0,
			"byteLength":156,
			"byteOffset":10992,
			"target":34963
		},
		{
			"buffer":0,
			"byteLength":1908,
			"byteOffset":11148,
			"target":34962
		},
		{
			"buffer":0,
			"byteLength":1908,
			"byteOffset":13056,
			"target":34962
		},
		{
			"buffer":0,
			"byteLength":1272,
			"byteOffset":14964,
			"target":34962
		},
		{
			"buffer":0,
			"byteLength":582,
			"byteOffset":16236,
			"target":34963
		}
	],
	"buffers":[
		{
			"byteLength":16820,
			"uri":"data:application/octet-stream;base64,"
		}
	]
}
