{
	"asset":{
		"generator":"Khronos glTF Blender I/O v3.6.27",
		"version":"2.0"
	},
	"scene":0,
	"scenes":[
		{
			"name":"Scene",
			"nodes":[
				0,
				1,
				3,
				5,
				7,
				9,
				11
			]
		}
	],
	"nodes":[
		{
			"name":"tmpParent"
		},
		{
			"name":"tmpParent.001"
		},
		{
			"mesh":0,
			"name":"rocket_topA",
			"translation":[
				0,
				3.200000762939453,
				0
			]
		},
		{
			"children":[
				2
			],
			"name":"tmpParent.002"
		},
		{
			"mesh":1,
			"name":"rocket_sidesA",
			"translation":[
				0,
				2.200000047683716,
				0
			]
		},
		{
			"children":[
				4
			],
			"name":"tmpParent.003"
		},
		{
			"mesh":2,
			"name":"rocket_fuelA",
			"translation":[
				0,
				1.700000286102295,
				0
			]
		},
		{
			"children":[
				6
			],
			"name":"tmpParent.004"
		},
		{
			"mesh":3,
			"name":"rocket_finsA",
			"translation":[
				0,
				1,
				0
			]
		},
		{
			"children":[
				8
			],
			"name":"tmpParent.005"
		},
		{
			"mesh":4,
			"name":"rocket_baseA"
		},
		{
			"children":[
				10
			],
			"name":"tmpParent.006"
		}
	],
	"materials":[
		{
			"name":"metalDark.001",
			"pbrMetallicRoughness":{
				"baseColorFactor":[
					0.6750622987747192,
					0.7100219130516052,
					0.7735849022865295,
					1
				]
			}
		},
		{
			"name":"metalRed.002",
			"pbrMetallicRoughness":{
				"baseColorFactor":[
					1,
					0.6285242438316345,
					0.20283019542694092,
					1
				]
			}
		},
		{
			"name":"_defaultMat.002",
			"pbrMetallicRoughness":{}
		},
		{
			"name":"metal.002",
			"pbrMetallicRoughness":{
				"baseColorFactor":[
					0.843137264251709,
					0.8705882430076599,
					0.9098039269447327,
					1
				]
			}
		},
		{
			"name":"metal.003",
			"pbrMetallicRoughness":{
				"baseColorFactor":[
					0.843137264251709,
					0.8705882430076599,
					0.9098039269447327,
					1
				]
			}
		},
		{
			"name":"metalDark.002",
			"pbrMetallicRoughness":{
				"baseColorFactor":[
					0.6750622987747192,
					0.7100219130516052,
					0.7735849022865295,
					1
				]
			}
		},
		{
			"name":"dark",
			"pbrMetallicRoughness":{
				"baseColorFactor":[
					0.27450981736183167,
					0.2980392277240753,
					0.34117648005485535,
					1
				]
			}
		},
		{
			"name":"metalRed.003",
			"pbrMetallicRoughness":{
				"baseColorFactor":[
					1,
					0.6285242438316345,
					0.20283019542694092,
					1
				]
			}
		},
		{
			"name":"metalDark.003",
			"pbrMetallicRoughness":{
				"baseColorFactor":[
					0.6750622987747192,
					0.7100219130516052,
					0.7735849022865295,
					1
				]
			}
		},
		{
			"name":"metal.004",
			"pbrMetallicRoughness":{
				"baseColorFactor":[
					0.843137264251709,
					0.8705882430076599,
					0.9098039269447327,
					1
				]
			}
		},
		{
			"name":"dark.001",
			"pbrMetallicRoughness":{
				"baseColorFactor":[
					0.27450981736183167,
					0.2980392277240753,
					0.34117648005485535,
					1
				]
			}
		},
		{
			"name":"metalDark.004",
			"pbrMetallicRoughness":{
				"baseColorFactor":[
					0.6750622987747192,
					0.7100219130516052,
					0.7735849022865295,
					1
				]
			}
		},
		{
			"name":"metalDark.005",
			"pbrMetallicRoughness":{
				"baseColorFactor":[
					0.6750622987747192,
					0.7100219130516052,
					0.7735849022865295,
					1
				]
			}
		},
		{
			"name":"metal.005",
			"pbrMetallicRoughness":{
				"baseColorFactor":[
					0.843137264251709,
					0.8705882430076599,
					0.9098039269447327,
					1
				]
			}
		},
		{
			"name":"metalRed.004",
			"pbrMetallicRoughness":{
				"baseColorFactor":[
					1,
					0.6285242438316345,
					0.20283019542694092,
					1
				]
			}
		}
	],
	"meshes":[
		{
			"name":"Mesh rocket_topA.001",
			"primitives":[
				{
					"attributes":{
						"POSITION":0,
						"NORMAL":1,
						"TEXCOORD_0":2
					},
					"indices":3,
					"material":0
				},
				{
					"attributes":{
						"POSITION":4,
						"NORMAL":5,
						"TEXCOORD_0":6
					},
					"indices":7,
					"material":1
				},
				{
					"attributes":{
						"POSITION":8,
						"NORMAL":9,
						"TEXCOORD_0":10
					},
					"indices":11,
					"material":2
				},
				{
					"attributes":{
						"POSITION":12,
						"NORMAL":13,
						"TEXCOORD_0":14
					},
					"indices":15,
					"material":3
				}
			]
		},
		{
			"name":"Mesh rocket_sidesA",
			"primitives":[
				{
					"attributes":{
						"POSITION":16,
						"NORMAL":17,
						"TEXCOORD_0":18
					},
					"indices":19,
					"material":4
				},
				{
					"attributes":{
						"POSITION":20,
						"NORMAL":21,
						"TEXCOORD_0":22
					},
					"indices":23,
					"material":5
				},
				{
					"attributes":{
						"POSITION":24,
						"NORMAL":25,
						"TEXCOORD_0":26
					},
					"indices":27,
					"material":6
				}
			]
		},
		{
			"name":"Mesh rocket_fuelA",
			"primitives":[
				{
					"attributes":{
						"POSITION":28,
						"NORMAL":29,
						"TEXCOORD_0":30
					},
					"indices":31,
					"material":7
				},
				{
					"attributes":{
						"POSITION":32,
						"NORMAL":33,
						"TEXCOORD_0":34
					},
					"indices":35,
					"material":8
				}
			]
		},
		{
			"name":"Mesh rocket_finsA",
			"primitives":[
				{
					"attributes":{
						"POSITION":36,
						"NORMAL":37,
						"TEXCOORD_0":38
					},
					"indices":39,
					"material":9
				},
				{
					"attributes":{
						"POSITION":40,
						"NORMAL":41,
						"TEXCOORD_0":42
					},
					"indices":43,
					"material":10
				},
				{
					"attributes":{
						"POSITION":44,
						"NORMAL":45,
						"TEXCOORD_0":46
					},
					"indices":47,
					"material":11
				}
			]
		},
		{
			"name":"Mesh rocket_baseA",
			"primitives":[
				{
					"attributes":{
						"POSITION":48,
						"NORMAL":49,
						"TEXCOORD_0":50
					},
					"indices":51,
					"material":12
				},
				{
					"attributes":{
						"POSITION":52,
						"NORMAL":53,
						"TEXCOORD_0":54
					},
					"indices":55,
					"material":13
				},
				{
					"attributes":{
						"POSITION":56,
						"NORMAL":57,
						"TEXCOORD_0":58
					},
					"indices":59,
					"material":14
				}
			]
		}
	],
	"accessors":[
		{
			"bufferView":0,
			"componentType":5126,
			"count":8,
			"max":[
				0.125,
				0.800000011920929,
				0.125
			],
			"min":[
				-0.125,
				0.800000011920929,
				-0.125
			],
			"type":"VEC3"
		},
		{
			"bufferView":1,
			"componentType":5126,
			"count":8,
			"type":"VEC3"
		},
		{
			"bufferView":2,
			"componentType":5126,
			"count":8,
			"type":"VEC2"
		},
		{
			"bufferView":3,
			"componentType":5123,
			"count":18,
			"type":"SCALAR"
		},
		{
			"bufferView":4,
			"componentType":5126,
			"count":40,
			"max":[
				0.5,
				0.25,
				0.5
			],
			"min":[
				-0.5,
				0,
				-0.5
			],
			"type":"VEC3"
		},
		{
			"bufferView":5,
			"componentType":5126,
			"count":40,
			"type":"VEC3"
		},
		{
			"bufferView":6,
			"componentType":5126,
			"count":40,
			"type":"VEC2"
		},
		{
			"bufferView":7,
			"componentType":5123,
			"count":66,
			"type":"SCALAR"
		},
		{
			"bufferView":8,
			"componentType":5126,
			"count":18,
			"max":[
				0.4375,
				0.25,
				0.4375
			],
			"min":[
				-0.4375,
				0.25,
				-0.4375
			],
			"type":"VEC3"
		},
		{
			"bufferView":9,
			"componentType":5126,
			"count":18,
			"type":"VEC3"
		},
		{
			"bufferView":10,
			"componentType":5126,
			"count":18,
			"type":"VEC2"
		},
		{
			"bufferView":11,
			"componentType":5123,
			"count":18,
			"type":"SCALAR"
		},
		{
			"bufferView":12,
			"componentType":5126,
			"count":32,
			"max":[
				0.4375,
				0.800000011920929,
				0.4375
			],
			"min":[
				-0.4375,
				0.25,
				-0.4375
			],
			"type":"VEC3"
		},
		{
			"bufferView":13,
			"componentType":5126,
			"count":32,
			"type":"VEC3"
		},
		{
			"bufferView":14,
			"componentType":5126,
			"count":32,
			"type":"VEC2"
		},
		{
			"bufferView":15,
			"componentType":5123,
			"count":48,
			"type":"SCALAR"
		},
		{
			"bufferView":16,
			"componentType":5126,
			"count":159,
			"max":[
				0.5,
				1,
				0.5
			],
			"min":[
				-0.5,
				0,
				-0.5
			],
			"type":"VEC3"
		},
		{
			"bufferView":17,
			"componentType":5126,
			"count":159,
			"type":"VEC3"
		},
		{
			"bufferView":18,
			"componentType":5126,
			"count":159,
			"type":"VEC2"
		},
		{
			"bufferView":19,
			"componentType":5123,
			"count":309,
			"type":"SCALAR"
		},
		{
			"bufferView":20,
			"componentType":5126,
			"count":159,
			"max":[
				0.5,
				1,
				0.5
			],
			"min":[
				-0.5,
				0,
				-0.5
			],
			"type":"VEC3"
		},
		{
			"bufferView":21,
			"componentType":5126,
			"count":159,
			"type":"VEC3"
		},
		{
			"bufferView":22,
			"componentType":5126,
			"count":159,
			"type":"VEC2"
		},
		{
			"bufferView":23,
			"componentType":5123,
			"count":309,
			"type":"SCALAR"
		},
		{
			"bufferView":24,
			"componentType":5126,
			"count":28,
			"max":[
				0.44999998807907104,
				0.800000011920929,
				0.44999998807907104
			],
			"min":[
				-0.44999998807907104,
				0.10000000149011612,
				-0.44999998807907104
			],
			"type":"VEC3"
		},
		{
			"bufferView":25,
			"componentType":5126,
			"count":28,
			"type":"VEC3"
		},
		{
			"bufferView":26,
			"componentType":5126,
			"count":28,
			"type":"VEC2"
		},
		{
			"bufferView":27,
			"componentType":5123,
			"count":48,
			"type":"SCALAR"
		},
		{
			"bufferView":28,
			"componentType":5126,
			"count":55,
			"max":[
				0.5,
				0.5,
				0.5
			],
			"min":[
				-0.5,
				0.4000000059604645,
				-0.5
			],
			"type":"VEC3"
		},
		{
			"bufferView":29,
			"componentType":5126,
			"count":55,
			"type":"VEC3"
		},
		{
			"bufferView":30,
			"componentType":5126,
			"count":55,
			"type":"VEC2"
		},
		{
			"bufferView":31,
			"componentType":5123,
			"count":117,
			"type":"SCALAR"
		},
		{
			"bufferView":32,
			"componentType":5126,
			"count":87,
			"max":[
				0.5,
				0.5,
				0.5
			],
			"min":[
				-0.5,
				-1.804778527019556e-16,
				-0.5
			],
			"type":"VEC3"
		},
		{
			"bufferView":33,
			"componentType":5126,
			"count":87,
			"type":"VEC3"
		},
		{
			"bufferView":34,
			"componentType":5126,
			"count":87,
			"type":"VEC2"
		},
		{
			"bufferView":35,
			"componentType":5123,
			"count":165,
			"type":"SCALAR"
		},
		{
			"bufferView":36,
			"componentType":5126,
			"count":105,
			"max":[
				0.5,
				0.699999988079071,
				0.5
			],
			"min":[
				-0.5,
				0,
				-0.5
			],
			"type":"VEC3"
		},
		{
			"bufferView":37,
			"componentType":5126,
			"count":105,
			"type":"VEC3"
		},
		{
			"bufferView":38,
			"componentType":5126,
			"count":105,
			"type":"VEC2"
		},
		{
			"bufferView":39,
			"componentType":5123,
			"count":183,
			"type":"SCALAR"
		},
		{
			"bufferView":40,
			"componentType":5126,
			"count":176,
			"max":[
				0.6000000238418579,
				0.699999988079071,
				0.6000000238418579
			],
			"min":[
				-0.6000000238418579,
				0.10000000149011612,
				-0.6000000238418579
			],
			"type":"VEC3"
		},
		{
			"bufferView":41,
			"componentType":5126,
			"count":176,
			"type":"VEC3"
		},
		{
			"bufferView":42,
			"componentType":5126,
			"count":176,
			"type":"VEC2"
		},
		{
			"bufferView":43,
			"componentType":5123,
			"count":312,
			"type":"SCALAR"
		},
		{
			"bufferView":44,
			"componentType":5126,
			"count":31,
			"max":[
				0.5,
				0.699999988079071,
				0.5
			],
			"min":[
				-0.5,
				0,
				-0.5
			],
			"type":"VEC3"
		},
		{
			"bufferView":45,
			"componentType":5126,
			"count":31,
			"type":"VEC3"
		},
		{
			"bufferView":46,
			"componentType":5126,
			"count":31,
			"type":"VEC2"
		},
		{
			"bufferView":47,
			"componentType":5123,
			"count":81,
			"type":"SCALAR"
		},
		{
			"bufferView":48,
			"componentType":5126,
			"count":48,
			"max":[
				0.5,
				0.6000000238418579,
				0.5
			],
			"min":[
				-0.5,
				0.20000000298023224,
				-0.5
			],
			"type":"VEC3"
		},
		{
			"bufferView":49,
			"componentType":5126,
			"count":48,
			"type":"VEC3"
		},
		{
			"bufferView":50,
			"componentType":5126,
			"count":48,
			"type":"VEC2"
		},
		{
			"bufferView":51,
			"componentType":5123,
			"count":90,
			"type":"SCALAR"
		},
		{
			"bufferView":52,
			"componentType":5126,
			"count":278,
			"max":[
				0.8999999761581421,
				0.8999999761581421,
				0.8999999761581421
			],
			"min":[
				-0.8999999761581421,
				0,
				-0.8999999761581421
			],
			"type":"VEC3"
		},
		{
			"bufferView":53,
			"componentType":5126,
			"count":278,
			"type":"VEC3"
		},
		{
			"bufferView":54,
			"componentType":5126,
			"count":278,
			"type":"VEC2"
		},
		{
			"bufferView":55,
			"componentType":5123,
			"count":432,
			"type":"SCALAR"
		},
		{
			"bufferView":56,
			"componentType":5126,
			"count":198,
			"max":[
				0.8999999761581421,
				1.600000023841858,
				0.8999999761581421
			],
			"min":[
				-0.8999999761581421,
				0.6000000238418579,
				-0.8999999761581421
			],
			"type":"VEC3"
		},
		{
			"bufferView":57,
			"componentType":5126,
			"count":198,
			"type":"VEC3"
		},
		{
			"bufferView":58,
			"componentType":5126,
			"count":198,
			"type":"VEC2"
		},
		{
			"bufferView":59,
			"componentType":5123,
			"count":378,
			"type":"SCALAR"
		}
	],
	"bufferViews":[
		{
			"buffer":0,
			"byteLength":96,
			"byteOffset":0,
			"target":34962
		},
		{
			"buffer":0,
			"byteLength":96,
			"byteOffset":96,
			"target":34962
		},
		{
			"buffer":0,
			"byteLength":64,
			"byteOffset":192,
			"target":34962
		},
		{
			"buffer":0,
			"byteLength":36,
			"byteOffset":256,
			"target":34963
		},
		{
			"buffer":0,
			"byteLength":480,
			"byteOffset":292,
			"target":34962
		},
		{
			"buffer":0,
			"byteLength":480,
			"byteOffset":772,
			"target":34962
		},
		{
			"buffer":0,
			"byteLength":320,
			"byteOffset":1252,
			"target":34962
		},
		{
			"buffer":0,
			"byteLength":132,
			"byteOffset":1572,
			"target":34963
		},
		{
			"buffer":0,
			"byteLength":216,
			"byteOffset":1704,
			"target":34962
		},
		{
			"buffer":0,
			"byteLength":216,
			"byteOffset":1920,
			"target":34962
		},
		{
			"buffer":0,
			"byteLength":144,
			"byteOffset":2136,
			"target":34962
		},
		{
			"buffer":0,
			"byteLength":36,
			"byteOffset":2280,
			"target":34963
		},
		{
			"buffer":0,
			"byteLength":384,
			"byteOffset":2316,
			"target":34962
		},
		{
			"buffer":0,
			"byteLength":384,
			"byteOffset":2700,
			"target":34962
		},
		{
			"buffer":0,
			"byteLength":256,
			"byteOffset":3084,
			"target":34962
		},
		{
			"buffer":0,
			"byteLength":96,
			"byteOffset":3340,
			"target":34963
		},
		{
			"buffer":0,
			"byteLength":1908,
			"byteOffset":3436,
			"target":34962
		},
		{
			"buffer":0,
			"byteLength":1908,
			"byteOffset":5344,
			"target":34962
		},
		{
			"buffer":0,
			"byteLength":1272,
			"byteOffset":7252,
			"target":34962
		},
		{
			"buffer":0,
			"byteLength":618,
			"byteOffset":8524,
			"target":34963
		},
		{
			"buffer":0,
			"byteLength":1908,
			"byteOffset":9144,
			"target":34962
		},
		{
			"buffer":0,
			"byteLength":1908,
			"byteOffset":11052,
			"target":34962
		},
		{
			"buffer":0,
			"byteLength":1272,
			"byteOffset":12960,
			"target":34962
		},
		{
			"buffer":0,
			"byteLength":618,
			"byteOffset":14232,
			"target":34963
		},
		{
			"buffer":0,
			"byteLength":336,
			"byteOffset":14852,
			"target":34962
		},
		{
			"buffer":0,
			"byteLength":336,
			"byteOffset":15188,
			"target":34962
		},
		{
			"buffer":0,
			"byteLength":224,
			"byteOffset":15524,
			"target":34962
		},
		{
			"buffer":0,
			"byteLength":96,
			"byteOffset":15748,
			"target":34963
		},
		{
			"buffer":0,
			"byteLength":660,
			"byteOffset":15844,
			"target":34962
		},
		{
			"buffer":0,
			"byteLength":660,
			"byteOffset":16504,
			"target":34962
		},
		{
			"buffer":0,
			"byteLength":440,
			"byteOffset":17164,
			"target":34962
		},
		{
			"buffer":0,
			"byteLength":234,
			"byteOffset":17604,
			"target":34963
		},
		{
			"buffer":0,
			"byteLength":1044,
			"byteOffset":17840,
			"target":34962
		},
		{
			"buffer":0,
			"byteLength":1044,
			"byteOffset":18884,
			"target":34962
		},
		{
			"buffer":0,
			"byteLength":696,
			"byteOffset":19928,
			"target":34962
		},
		{
			"buffer":0,
			"byteLength":330,
			"byteOffset":20624,
			"target":34963
		},
		{
			"buffer":0,
			"byteLength":1260,
			"byteOffset":20956,
			"target":34962
		},
		{
			"buffer":0,
			"byteLength":1260,
			"byteOffset":22216,
			"target":34962
		},
		{
			"buffer":0,
			"byteLength":840,
			"byteOffset":23476,
			"target":34962
		},
		{
			"buffer":0,
			"byteLength":366,
			"byteOffset":24316,
			"target":34963
		},
		{
			"buffer":0,
			"byteLength":2112,
			"byteOffset":24684,
			"target":34962
		},
		{
			"buffer":0,
			"byteLength":2112,
			"byteOffset":26796,
			"target":34962
		},
		{
			"buffer":0,
			"byteLength":1408,
			"byteOffset":28908,
			"target":34962
		},
		{
			"buffer":0,
			"byteLength":624,
			"byteOffset":30316,
			"target":34963
		},
		{
			"buffer":0,
			"byteLength":372,
			"byteOffset":30940,
			"target":34962
		},
		{
			"buffer":0,
			"byteLength":372,
			"byteOffset":31312,
			"target":34962
		},
		{
			"buffer":0,
			"byteLength":248,
			"byteOffset":31684,
			"target":34962
		},
		{
			"buffer":0,
			"byteLength":162,
			"byteOffset":31932,
			"target":34963
		},
		{
			"buffer":0,
			"byteLength":576,
			"byteOffset":32096,
			"target":34962
		},
		{
			"buffer":0,
			"byteLength":576,
			"byteOffset":32672,
			"target":34962
		},
		{
			"buffer":0,
			"byteLength":384,
			"byteOffset":33248,
			"target":34962
		},
		{
			"buffer":0,
			"byteLength":180,
			"byteOffset":33632,
			"target":34963
		},
		{
			"buffer":0,
			"byteLength":3336,
			"byteOffset":33812,
			"target":34962
		},
		{
			"buffer":0,
			"byteLength":3336,
			"byteOffset":37148,
			"target":34962
		},
		{
			"buffer":0,
			"byteLength":2224,
			"byteOffset":40484,
			"target":34962
		},
		{
			"buffer":0,
			"byteLength":864,
			"byteOffset":42708,
			"target":34963
		},
		{
			"buffer":0,
			"byteLength":2376,
			"byteOffset":43572,
			"target":34962
		},
		{
			"buffer":0,
			"byteLength":2376,
			"byteOffset":45948,
			"target":34962
		},
		{
			"buffer":0,
			"byteLength":1584,
			"byteOffset":48324,
			"target":34962
		},
		{
			"buffer":0,
			"byteLength":756,
			"byteOffset":49908,
			"target":34963
		}
	],
	"buffers":[
		{
			"byteLength":50664,
			"uri":"data:application/octet-stream;base64,"
		}
	]
}
